<svg xmlns="http://www.w3.org/2000/svg" xmlns:xlink="http://www.w3.org/1999/xlink" width="500" zoomAndPan="magnify" viewBox="0 0 375 374.999991" height="500" preserveAspectRatio="xMidYMid meet" version="1.0"><rect x="-37.5" width="450" fill="#ffffff" y="-37.499999" height="449.999989" fill-opacity="1"/><rect x="-37.5" width="450" fill="#ffffff" y="-37.499999" height="449.999989" fill-opacity="1"/><path fill="#014c3c" d="M -217.683594 302.890625 L -217.683594 713.683594 L 603.90625 713.683594 L 603.90625 -107.90625 L -217.683594 -107.90625 Z M 167.757812 13.96875 C 169.042969 15.332031 169.042969 18.0625 167.679688 58.660156 C 166.957031 82.488281 166.554688 102.867188 166.875 104.070312 C 167.4375 106.078125 167.839844 106.316406 171.046875 106.316406 C 173.617188 106.316406 174.820312 105.917969 175.300781 104.875 C 175.703125 104.152344 176.261719 97.570312 176.585938 90.269531 C 178.992188 26.40625 179.632812 15.332031 181.15625 13.566406 C 182.28125 12.203125 185.25 12.125 186.53125 13.40625 C 187.253906 14.128906 187.496094 25.441406 187.496094 59.460938 C 187.496094 109.445312 187.175781 106.636719 192.871094 106.15625 L 195.921875 105.917969 L 196.402344 99.898438 C 196.722656 96.609375 196.964844 84.652344 197.042969 73.421875 C 197.042969 62.1875 197.363281 44.539062 197.683594 34.269531 C 198.085938 18.460938 198.40625 15.253906 199.53125 13.886719 C 201.136719 11.882812 204.824219 12.363281 205.46875 14.691406 C 205.949219 16.296875 206.429688 28.890625 207.554688 66.601562 C 208.675781 101.261719 208.757812 104.3125 209.480469 105.433594 C 209.800781 105.917969 211.644531 106.316406 213.570312 106.316406 C 218.226562 106.316406 219.1875 104.710938 218.464844 97.570312 C 218.226562 94.683594 217.742188 74.785156 217.421875 53.363281 C 216.941406 17.820312 217.023438 14.371094 218.226562 13.328125 C 219.910156 11.960938 223.359375 12.765625 223.921875 14.691406 C 224.804688 17.578125 227.210938 46.863281 229.617188 85.054688 C 229.859375 88.988281 230.421875 97.011719 230.902344 102.785156 C 232.265625 120.839844 230.5 126.617188 220.230469 136.886719 C 207.875 149.324219 204.746094 156.785156 204.746094 173.714844 C 204.746094 179.25 205.226562 191.6875 205.789062 201.394531 C 206.269531 211.101562 206.914062 223.539062 207.152344 229.074219 C 207.554688 239.664062 208.035156 249.132812 208.757812 262.371094 C 209 266.785156 209.71875 283.230469 210.363281 299.039062 C 211.886719 336.425781 211.085938 343.648438 204.265625 351.351562 C 194.554688 362.421875 178.109375 359.375 172.089844 345.414062 C 168.398438 336.828125 168.320312 329.367188 171.851562 282.429688 C 172.410156 274.003906 173.375 260.847656 173.855469 253.144531 C 174.335938 245.441406 175.058594 235.652344 175.460938 231.480469 C 177.867188 207.25 179.632812 179.570312 179.3125 170.101562 C 178.75 155.257812 176.585938 150.527344 164.628906 137.6875 C 157.96875 130.546875 156.125 127.417969 154.199219 119.875 C 153.15625 116.105469 152.996094 113.058594 153.316406 108.324219 C 154.839844 88.664062 158.773438 41.410156 159.894531 29.292969 C 161.179688 14.851562 161.980469 12.445312 165.03125 12.445312 C 165.753906 12.445312 167.035156 13.085938 167.757812 13.96875 Z M 146.578125 39.882812 C 146.015625 47.507812 145.132812 58.980469 144.652344 65.316406 L 143.769531 76.792969 L 138.152344 81.363281 C 131.734375 86.578125 125.234375 95.566406 122.988281 102.304688 C 121.144531 107.921875 120.421875 119.074219 121.625 124.929688 C 124.351562 138.089844 134.058594 149.882812 147.539062 156.382812 C 151.632812 158.390625 158.128906 160.796875 161.980469 161.757812 C 168.722656 163.445312 168.960938 163.523438 168.640625 165.609375 C 168.480469 166.734375 167.757812 175.476562 167.035156 184.945312 C 165.351562 208.214844 165.191406 209.015625 163.585938 209.015625 C 161.179688 209.015625 147.136719 205.164062 139.917969 202.515625 C 124.59375 197.0625 111.914062 189.359375 100.925781 179.007812 C 56.714844 137.125 65.863281 67.804688 119.859375 35.390625 C 129.808594 29.453125 145.210938 23.757812 146.898438 25.363281 C 147.378906 25.84375 147.296875 31.21875 146.578125 39.882812 Z M 245.34375 26.804688 C 266.042969 33.867188 286.023438 49.59375 297.253906 67.402344 C 301.585938 74.382812 306.242188 85.214844 308.40625 93.320312 C 311.054688 103.589844 311.457031 121.480469 309.210938 131.992188 C 307.445312 140.09375 303.191406 151.085938 300.222656 154.9375 C 295.648438 160.875 288.992188 163.445312 280.648438 162.402344 C 272.222656 161.277344 262.914062 152.53125 260.910156 143.707031 C 260.027344 140.175781 260.105469 139.214844 261.390625 136.726562 C 262.191406 135.121094 263.398438 130.867188 264.199219 127.179688 C 267.488281 110.570312 261.710938 94.84375 247.511719 82.007812 L 241.894531 76.871094 L 240.371094 56.492188 C 238.523438 31.21875 238.445312 25.28125 239.886719 25.28125 C 240.53125 25.28125 242.9375 25.921875 245.34375 26.804688 Z M 228.816406 180.292969 C 252.804688 186.070312 270.375 195.457031 284.015625 209.816406 C 298.457031 224.984375 305.4375 242.714844 305.4375 264.457031 C 305.4375 308.105469 275.59375 343.648438 228.574219 355.921875 C 223.601562 357.207031 218.625 358.25 217.664062 358.25 L 215.816406 358.25 L 218.144531 353.597656 C 222.558594 344.769531 223.601562 338.433594 223.199219 324.953125 L 222.796875 312.839844 L 228.414062 310.992188 C 239.488281 307.460938 250.960938 297.914062 256.417969 287.726562 C 260.105469 280.746094 261.308594 275.691406 261.308594 266.785156 C 261.230469 245.761719 247.992188 231.5625 222.316406 225.0625 L 219.027344 224.261719 L 218.464844 206.851562 C 218.144531 197.222656 217.742188 186.710938 217.421875 183.5 L 216.941406 177.726562 L 219.667969 178.207031 C 221.195312 178.445312 225.285156 179.410156 228.816406 180.292969 Z M 104.855469 222.09375 C 106.859375 223.058594 110.152344 225.464844 112.238281 227.550781 C 117.53125 232.84375 118.976562 237.980469 118.011719 248.332031 C 117.050781 259 117.210938 270.394531 118.414062 275.609375 C 121.785156 289.730469 130.929688 300.722656 145.050781 307.621094 C 149.625 309.871094 154.601562 311.957031 156.042969 312.195312 L 158.613281 312.675781 L 158.613281 324.953125 C 158.613281 338.832031 160.054688 346.457031 164.226562 354.078125 C 165.511719 356.484375 166.472656 358.652344 166.394531 358.8125 C 165.351562 359.773438 143.449219 353.996094 135.101562 350.546875 C 96.511719 334.5 71.960938 299.761719 71.960938 261.246094 C 71.960938 246.644531 75.089844 232.925781 79.660156 227.46875 C 85.921875 220.089844 96.109375 217.921875 104.855469 222.09375 Z M 46.605469 406.710938 C 52.945312 407.996094 60.566406 411.285156 62.894531 413.773438 C 64.175781 415.214844 64.175781 415.457031 62.894531 417.863281 C 62.089844 419.308594 60.324219 421.792969 58.882812 423.558594 L 56.234375 426.6875 L 52.863281 424.925781 C 41.871094 419.308594 29.4375 420.109375 29.4375 426.289062 C 29.4375 429.816406 32.324219 431.824219 42.59375 435.273438 C 53.507812 438.882812 56.3125 440.488281 60.566406 445.304688 C 68.1875 453.96875 66.90625 467.449219 57.839844 474.027344 C 51.660156 478.519531 47.085938 479.804688 37.058594 479.804688 C 29.917969 479.804688 27.191406 479.484375 22.9375 477.957031 C 16.917969 475.871094 10.339844 472.019531 9.617188 470.09375 C 9.058594 468.492188 11.144531 464.398438 14.59375 460.308594 L 17.160156 457.339844 L 20.289062 459.503906 C 27.671875 464.480469 40.667969 466.246094 45.242188 462.875 C 48.289062 460.546875 48.691406 456.777344 46.042969 454.371094 C 44.921875 453.328125 40.027344 451.242188 34.492188 449.554688 C 23.179688 446.027344 18.042969 442.894531 14.59375 437.359375 C 12.425781 433.828125 12.1875 432.707031 12.1875 427.332031 C 12.265625 420.269531 13.949219 416.257812 18.605469 412.167969 C 25.265625 406.230469 34.652344 404.464844 46.605469 406.710938 Z M 285.941406 407.273438 C 293.886719 408.316406 299.660156 411.042969 303.835938 415.777344 C 308.808594 421.472656 310.734375 430.21875 308.648438 437.839844 C 307.363281 442.414062 303.03125 448.191406 298.457031 451.402344 C 294.929688 453.808594 294.445312 454.449219 295.410156 455.414062 C 297.496094 457.660156 310.253906 476.59375 310.253906 477.558594 C 310.253906 479.082031 307.445312 479.484375 299.421875 479.242188 L 292.199219 479 L 284.578125 467.609375 L 276.957031 456.214844 L 272.382812 456.136719 L 267.730469 456.136719 L 267.730469 466.804688 C 267.730469 474.027344 267.40625 477.796875 266.765625 478.441406 C 265.722656 479.484375 253.6875 479.804688 251.363281 478.921875 C 250.238281 478.519531 250.078125 474.667969 250.078125 443.777344 C 250.078125 424.761719 250.398438 408.796875 250.71875 408.234375 C 251.84375 406.550781 275.511719 405.828125 285.941406 407.273438 Z M 374.601562 407.273438 C 375.804688 407.914062 376.042969 409.039062 376.042969 414.894531 C 376.042969 421.472656 375.964844 421.714844 373.957031 422.4375 C 372.835938 422.917969 368.503906 423.238281 364.332031 423.238281 L 356.789062 423.238281 L 356.789062 450.4375 C 356.789062 472.742188 356.546875 477.796875 355.664062 478.519531 C 354.941406 479.160156 351.894531 479.402344 347.078125 479.242188 L 339.539062 479 L 339.296875 451.082031 L 339.136719 423.238281 L 330.472656 423.238281 C 319 423.238281 318.277344 422.757812 318.277344 414.976562 C 318.277344 408.957031 318.675781 407.753906 320.683594 406.953125 C 322.769531 406.148438 372.996094 406.390625 374.601562 407.273438 Z M 93.703125 408.15625 C 94.425781 408.71875 96.269531 410.964844 97.792969 413.210938 C 101.566406 418.585938 112.796875 435.035156 114.804688 438.242188 C 115.765625 439.6875 116.730469 440.808594 117.050781 440.890625 C 117.371094 440.890625 121.785156 434.871094 127 427.410156 C 132.132812 420.03125 137.589844 412.488281 139.113281 410.5625 L 141.84375 407.191406 L 147.621094 407.191406 C 150.828125 407.191406 153.878906 407.511719 154.441406 407.835938 C 155.242188 408.394531 155.402344 416.097656 155.242188 443.777344 L 155 479 L 139.757812 479 L 138.953125 436.476562 L 131.414062 447.628906 C 127.320312 453.726562 123.230469 459.425781 122.425781 460.226562 C 120.902344 461.75 116.007812 462.3125 113.359375 461.269531 C 112.636719 460.949219 108.707031 455.894531 104.695312 449.957031 C 100.683594 444.101562 97.074219 439.046875 96.671875 438.804688 C 96.351562 438.5625 96.03125 447.390625 96.03125 458.382812 C 96.03125 475.953125 95.871094 478.519531 94.746094 478.921875 C 94.023438 479.160156 90.652344 479.402344 87.203125 479.402344 C 81.988281 479.402344 80.707031 479.160156 80.144531 477.957031 C 79.660156 477.234375 79.421875 461.832031 79.5 442.65625 C 79.582031 413.449219 79.742188 408.636719 80.785156 407.996094 C 82.550781 406.871094 92.339844 407.03125 93.703125 408.15625 Z M 211.246094 407.835938 C 212.609375 408.71875 213.890625 411.445312 223.601562 434.871094 C 228.574219 446.746094 234.59375 461.191406 237 466.886719 C 239.40625 472.503906 241.171875 477.636719 240.929688 478.277344 C 240.609375 479.160156 238.605469 479.402344 232.585938 479.402344 C 223.441406 479.402344 223.359375 479.320312 220.390625 471.941406 L 218.464844 467.367188 L 189.824219 467.367188 L 189.019531 469.773438 C 188.539062 471.058594 187.414062 473.625 186.453125 475.550781 L 184.6875 479 L 176.261719 479 C 169.121094 479 167.839844 478.839844 167.597656 477.71875 C 167.4375 476.996094 169.363281 471.78125 171.769531 466.082031 C 174.175781 460.386719 180.515625 445.222656 185.890625 432.464844 C 191.1875 419.628906 196.160156 408.71875 196.882812 408.15625 C 198.328125 407.113281 209.71875 406.792969 211.246094 407.835938 Z M 156.203125 496.332031 C 166.152344 497.9375 172.25 502.027344 176.023438 509.730469 C 178.992188 515.75 179.152344 523.53125 176.421875 529.628906 C 174.496094 533.882812 169.441406 539.417969 165.59375 541.34375 C 163.34375 542.464844 163.34375 542.464844 164.871094 544.472656 C 168.640625 549.285156 179.472656 565.734375 179.472656 566.535156 C 179.472656 568.140625 167.355469 569.183594 162.863281 567.980469 C 161.742188 567.660156 158.210938 563.246094 153.234375 555.945312 L 145.375 544.390625 L 136.949219 544.390625 L 136.949219 566.855469 L 134.863281 567.660156 C 132.617188 568.542969 124.753906 568.703125 121.945312 567.980469 L 120.101562 567.5 L 120.101562 496.332031 L 122.746094 496.011719 C 128.445312 495.289062 151.308594 495.53125 156.203125 496.332031 Z M 297.253906 496.652344 C 298.617188 497.132812 298.699219 566.457031 297.335938 567.339844 C 295.648438 568.300781 285.863281 568.621094 283.535156 567.738281 L 281.367188 566.855469 L 281.527344 531.792969 L 281.769531 496.652344 L 284.175781 496.171875 C 286.421875 495.691406 295.007812 496.011719 297.253906 496.652344 Z M 362.726562 496.25 C 364.730469 496.972656 364.8125 497.292969 364.8125 503.3125 C 364.8125 507.082031 364.410156 509.972656 363.847656 510.53125 C 363.207031 511.175781 360.078125 511.496094 355.023438 511.496094 L 347.160156 511.496094 L 347.160156 538.535156 C 347.160156 553.457031 346.839844 566.132812 346.4375 566.695312 C 345.554688 568.058594 335.367188 568.863281 332.558594 567.738281 L 330.3125 566.9375 L 330.152344 539.417969 L 329.910156 511.898438 L 321.164062 511.65625 C 316.191406 511.574219 311.859375 511.015625 311.296875 510.53125 C 310.492188 509.890625 310.253906 507.886719 310.414062 503.152344 L 310.652344 496.652344 L 313.0625 496.171875 C 317.074219 495.289062 360.480469 495.367188 362.726562 496.25 Z M -29.292969 500.421875 C -27.609375 502.75 -22.476562 509.972656 -17.980469 516.46875 C -13.488281 523.050781 -9.558594 528.34375 -9.238281 528.34375 C -8.914062 528.34375 -5.945312 524.414062 -2.65625 519.679688 C 0.632812 514.945312 5.765625 507.726562 8.734375 503.632812 L 14.191406 496.25 L 20.929688 496.25 C 26.308594 496.25 27.75 496.492188 28.152344 497.535156 C 28.953125 499.542969 28.714844 565.492188 27.910156 566.777344 C 27.027344 568.222656 17 568.941406 14.03125 567.738281 L 11.785156 566.9375 L 11.625 546.476562 L 11.382812 526.097656 L 3.441406 537.652344 L -4.503906 549.207031 L -13.808594 549.207031 L -21.671875 537.570312 C -26.003906 531.234375 -29.777344 526.019531 -30.097656 525.9375 C -30.5 525.9375 -30.738281 535.085938 -30.738281 546.316406 C -30.738281 559.394531 -31.058594 566.9375 -31.542969 567.257812 C -32.984375 568.140625 -40.847656 568.703125 -43.898438 568.140625 L -46.785156 567.578125 L -46.785156 532.4375 C -46.785156 513.101562 -46.546875 497.054688 -46.222656 496.8125 C -45.984375 496.492188 -42.695312 496.25 -39.082031 496.25 L -32.425781 496.25 Z M 82.390625 497.453125 C 83.835938 499.21875 111.273438 564.449219 111.273438 566.132812 C 111.273438 567.660156 108.226562 568.460938 101.96875 568.460938 C 95.226562 568.460938 94.105469 567.738281 91.535156 561.320312 L 89.210938 555.625 L 60.886719 555.625 L 58.480469 561.402344 C 55.753906 567.820312 55.191406 568.222656 48.210938 568.382812 C 42.914062 568.460938 39.0625 567.738281 38.582031 566.457031 C 38.34375 565.894531 42.914062 554.179688 48.773438 540.300781 C 54.550781 526.417969 60.808594 511.496094 62.574219 507.082031 C 66.984375 496.089844 66.824219 496.25 74.769531 496.25 C 79.742188 496.25 81.667969 496.574219 82.390625 497.453125 Z M 206.511719 498.015625 C 207.394531 499.058594 212.6875 506.441406 218.226562 514.542969 L 228.253906 529.148438 L 235.714844 518.554688 C 239.808594 512.699219 245.023438 505.238281 247.429688 502.027344 L 251.683594 496.25 L 258.503906 496.25 C 265 496.25 265.320312 496.332031 265.804688 498.175781 C 266.445312 500.984375 265.804688 566.617188 265.082031 567.339844 C 264.761719 567.738281 261.390625 567.980469 257.621094 568.058594 C 252.40625 568.058594 250.640625 567.738281 250.078125 566.855469 C 249.597656 566.132812 249.355469 557.46875 249.4375 545.355469 C 249.597656 534.28125 249.597656 525.136719 249.597656 525.136719 C 249.515625 525.136719 245.984375 530.109375 241.734375 536.289062 C 237.480469 542.386719 233.550781 547.839844 232.90625 548.324219 C 232.265625 548.882812 229.9375 549.207031 227.453125 549.046875 L 223.199219 548.804688 L 215.578125 537.8125 C 211.40625 531.792969 207.792969 526.660156 207.554688 526.417969 C 207.3125 526.257812 207.234375 535.003906 207.394531 545.914062 C 207.554688 563.566406 207.472656 565.972656 206.269531 566.9375 C 204.585938 568.300781 195.761719 568.863281 192.953125 567.738281 L 190.707031 566.855469 L 190.707031 532.117188 C 190.707031 512.941406 190.945312 497.054688 191.265625 496.8125 C 191.507812 496.492188 194.714844 496.25 198.328125 496.25 C 204.105469 496.25 205.066406 496.492188 206.511719 498.015625 Z M 403.964844 497.214844 C 404.6875 498.175781 415.039062 522.566406 428.597656 555.144531 C 434.054688 568.222656 434.054688 568.140625 424.746094 568.382812 C 416.242188 568.621094 415.277344 568.058594 412.550781 561.320312 L 410.304688 555.625 L 396.183594 555.785156 L 382.140625 556.023438 L 380.214844 560.839844 C 377.40625 567.898438 377.167969 568.058594 368.421875 568.058594 C 364.089844 568.058594 360.480469 567.660156 359.996094 567.179688 C 359.4375 566.617188 361.683594 560.277344 368.101562 545.113281 C 379.09375 519.039062 388.160156 497.617188 388.640625 496.8125 C 389.28125 495.769531 403.082031 496.171875 403.964844 497.214844 Z M 403.964844 497.214844 " fill-opacity="1" fill-rule="nonzero"/></svg>